HIERARCHY
ROOT joint_Root
{
	OFFSET 0.0 0.0 0.0
	CHANNELS 6 Xposition Yposition Zposition Zrotation Xrotation Yrotation 
	JOINT Hips
	{
		OFFSET -0.726466 93.3139 -2.00062
		CHANNELS 6 Xposition Yposition Zposition Zrotation Xrotation Yrotation 
		JOINT Spine
		{
			OFFSET 15.7357 0.0 0.0
			CHANNELS 6 Xposition Yposition Zposition Zrotation Xrotation Yrotation 
			JOINT Chest
			{
				OFFSET 8.98455 -0.406207 0.0
				CHANNELS 6 Xposition Yposition Zposition Zrotation Xrotation Yrotation 
				JOINT Neck
				{
					OFFSET 16.3773 0.0 0.0
					CHANNELS 6 Xposition Yposition Zposition Zrotation Xrotation Yrotation 
					JOINT Head
					{
						OFFSET 6.45672 0.0 0.0
						CHANNELS 6 Xposition Yposition Zposition Zrotation Xrotation Yrotation 
						End Site
						{
							OFFSET 0.0 0.0 0.0
						}
					}
				}
				JOINT Shoulder_L
				{
					OFFSET 12.9942 -0.242716 4.98039
					CHANNELS 6 Xposition Yposition Zposition Zrotation Xrotation Yrotation 
					JOINT UpperArm_L
					{
						OFFSET 5.34809 0.0 0.0
						CHANNELS 6 Xposition Yposition Zposition Zrotation Xrotation Yrotation 
						JOINT LowerArm_L
						{
							OFFSET 24.3286 1.87007e-05 0.0
							CHANNELS 6 Xposition Yposition Zposition Zrotation Xrotation Yrotation 
							JOINT Hand_L
							{
								OFFSET 22.2916 0.0 0.0
								CHANNELS 6 Xposition Yposition Zposition Zrotation Xrotation Yrotation 
								End Site
								{
									OFFSET 0.0 0.0 0.0
								}
							}
						}
					}
				}
				JOINT Shoulder_R
				{
					OFFSET 12.9945 -0.242716 -4.98039
					CHANNELS 6 Xposition Yposition Zposition Zrotation Xrotation Yrotation 
					JOINT UpperArm_R
					{
						OFFSET -5.34813 0.0 0.0
						CHANNELS 6 Xposition Yposition Zposition Zrotation Xrotation Yrotation 
						JOINT LowerArm_R
						{
							OFFSET -24.3289 0.000322201 0.0
							CHANNELS 6 Xposition Yposition Zposition Zrotation Xrotation Yrotation 
							JOINT Hand_R
							{
								OFFSET -22.2915 -0.000108084 0.0
								CHANNELS 6 Xposition Yposition Zposition Zrotation Xrotation Yrotation 
								End Site
								{
									OFFSET 0.0 0.0 0.0
								}
							}
						}
					}
				}
			}
		}
		JOINT UpperLeg_L
		{
			OFFSET -2.19248 -6.46944 0.0
			CHANNELS 6 Xposition Yposition Zposition Zrotation Xrotation Yrotation 
			JOINT LowerLeg_L
			{
				OFFSET 39.0811 0.0 -1.23785e-05
				CHANNELS 6 Xposition Yposition Zposition Zrotation Xrotation Yrotation 
				JOINT Foot_L
				{
					OFFSET 40.9854 0.0 -1.26872e-05
					CHANNELS 6 Xposition Yposition Zposition Zrotation Xrotation Yrotation 
					JOINT Toes_L
					{
						OFFSET 11.7543 0.0 0.0
						CHANNELS 6 Xposition Yposition Zposition Zrotation Xrotation Yrotation 
						End Site
						{
							OFFSET 0.0 0.0 0.0
						}
					}
				}
			}
		}
		JOINT UpperLeg_R
		{
			OFFSET -2.19251 6.46944 0.0
			CHANNELS 6 Xposition Yposition Zposition Zrotation Xrotation Yrotation 
			JOINT LowerLeg_R
			{
				OFFSET -39.0811 -0.00228153 -0.0401928
				CHANNELS 6 Xposition Yposition Zposition Zrotation Xrotation Yrotation 
				JOINT Foot_R
				{
					OFFSET -40.9854 0.0 0.0
					CHANNELS 6 Xposition Yposition Zposition Zrotation Xrotation Yrotation 
					JOINT Toes_R
					{
						OFFSET -11.7543 0.0 0.0
						CHANNELS 6 Xposition Yposition Zposition Zrotation Xrotation Yrotation 
						End Site
						{
							OFFSET 0.0 0.0 0.0
						}
					}
				}
			}
		}
	}
}
MOTION
Frames:	8
Frame Time:	0.0333333
0.000000 0.000000 0.000000 0.000000 0.000000 -0.000000 143.009000 90.441800 -72.117900 88.560900 -2.743830 -0.388733 15.735700 0.000005 -0.000001 109.363000 83.749700 -108.662000 8.984550 -0.406207 -0.000000 4.011140 4.115580 1.257700 16.377300 -0.000001 -0.000001 0.842260 -2.326900 0.140575 6.456720 -0.000001 -0.000000 2.181000 -6.082660 -1.772810 12.994200 -0.242716 4.980390 -89.461800 -1.401900 -68.995300 5.348090 -0.000007 -0.000001 -74.106400 28.513900 -8.565550 24.328600 0.000019 0.000005 -0.424236 -0.794342 -28.075900 22.291600 -0.000001 0.000005 9.813590 5.516350 -7.207750 12.994500 -0.242716 -4.980390 89.092400 3.417580 -75.118000 -5.348130 -0.000001 -0.000004 -53.555500 30.256900 -43.851700 -24.328900 0.000322 -0.000009 2.601090 4.288750 -31.288600 -22.291500 -0.000108 -0.000004 14.752400 5.423300 -3.710370 -2.192480 -6.469440 -0.000000 177.900000 -11.307900 -23.599600 39.081100 -0.000007 -0.000012 -0.001383 0.010996 7.163060 40.985400 -0.000006 -0.000013 -0.676809 0.053432 -51.563600 11.754300 -0.000000 0.000003 -0.005422 -0.065496 -19.242000 -2.192510 6.469440 -0.000001 -178.422000 17.655300 -174.436000 -39.081100 -0.002282 -0.040193 0.001759 0.003930 21.643600 -40.985400 0.000008 0.000006 10.002400 9.100690 -71.003300 -11.754300 -0.000006 -0.000006 -0.868455 -0.998063 -22.680700
0.000000 0.000000 0.000000 0.000000 0.000000 -0.000000 143.447000 89.813800 -68.553900 87.877200 -3.909020 -0.522112 15.735700 0.000005 -0.000001 111.267000 83.759000 -110.478000 8.984550 -0.406207 -0.000000 3.845360 4.494140 1.425190 16.377300 -0.000001 -0.000001 0.555251 -2.197150 0.194595 6.456720 -0.000001 -0.000000 2.012730 -5.816570 -1.768180 12.994200 -0.242716 4.980390 -89.519700 -1.249540 -68.971700 5.348090 -0.000007 -0.000001 -75.477900 26.101800 -6.160860 24.328600 0.000019 0.000005 0.345666 0.847296 -22.253300 22.291600 -0.000001 0.000005 9.705260 5.482610 -5.847230 12.994500 -0.242716 -4.980390 89.113600 3.389150 -75.334000 -5.348130 -0.000001 -0.000004 -52.775100 30.098800 -45.156900 -24.328900 0.000322 -0.000009 2.484450 3.738330 -33.655200 -22.291500 -0.000108 -0.000004 15.089300 5.431370 -3.986020 -2.192480 -6.469440 -0.000000 176.625000 -13.816000 -24.103400 39.081100 -0.000007 -0.000012 -0.000145 0.001966 4.206730 40.985400 -0.000006 -0.000013 1.808330 -0.490653 -54.893600 11.754300 -0.000000 0.000003 -0.006876 -0.078608 -19.776800 -2.192510 6.469440 -0.000001 -178.805000 15.976700 -173.609000 -39.081100 -0.002282 -0.040193 0.006052 -0.006035 24.409800 -40.985400 0.000008 0.000006 9.645240 9.018000 -71.515200 -11.754300 -0.000006 -0.000006 -0.022888 -0.182790 -24.047100
0.000000 0.000000 0.000000 0.000000 0.000000 -0.000000 144.074000 89.349900 -64.454200 88.296300 -4.386010 -0.384564 15.735700 0.000005 -0.000001 110.366000 83.818300 -109.877000 8.984550 -0.406207 -0.000000 3.815460 4.279890 0.834153 16.377300 -0.000001 -0.000001 0.482218 -2.230680 0.325511 6.456720 -0.000001 -0.000000 1.899570 -5.785160 -1.545280 12.994200 -0.242716 4.980390 -89.586400 -1.076480 -68.982400 5.348090 -0.000007 -0.000001 -76.271500 24.203100 -4.131040 24.328600 0.000019 0.000005 1.174990 3.956500 -16.574800 22.291600 -0.000001 0.000005 9.149820 5.436400 -4.156790 12.994500 -0.242716 -4.980390 89.010700 3.790410 -75.360100 -5.348130 -0.000001 -0.000004 -52.043100 30.522100 -45.577800 -24.328900 0.000322 -0.000009 2.242950 3.167000 -35.348400 -22.291500 -0.000108 -0.000004 15.382400 5.441590 -4.341470 -2.192480 -6.469440 -0.000000 174.800000 -13.349300 -26.654800 39.081100 -0.000007 -0.000012 0.021305 -0.113649 10.617800 40.985400 -0.000006 -0.000013 8.055790 -4.207050 -55.492000 11.754300 -0.000000 0.000003 -0.005820 -0.069201 -19.393000 -2.192510 6.469440 -0.000001 179.287000 15.029000 -172.521000 -39.081100 -0.002282 -0.040193 0.012186 -0.017034 27.531000 -40.985400 0.000008 0.000006 8.969460 9.582700 -70.950600 -11.754300 -0.000006 -0.000006 -0.042956 -0.271682 -27.742100
0.000000 0.000000 0.000000 0.000000 0.000000 -0.000000 144.759000 89.092800 -59.911800 89.726200 -4.759870 -0.154708 15.735700 0.000005 -0.000001 108.756000 84.005700 -108.936000 8.984550 -0.406207 -0.000000 3.598840 3.856490 -0.479505 16.377300 -0.000001 -0.000001 0.616163 -2.358900 0.602732 6.456720 -0.000001 -0.000000 2.136180 -5.977820 -1.293480 12.994200 -0.242716 4.980390 -89.657800 -0.888297 -68.928900 5.348090 -0.000007 -0.000001 -76.760700 22.212100 -1.933280 24.328600 0.000019 0.000005 1.873530 8.803050 -12.071600 22.291600 -0.000001 0.000005 8.154340 5.370870 -2.009510 12.994500 -0.242716 -4.980390 88.806500 4.558220 -75.310700 -5.348130 -0.000001 -0.000004 -51.769800 31.546500 -44.570000 -24.328900 0.000322 -0.000009 2.128250 2.905730 -36.258800 -22.291500 -0.000108 -0.000004 15.403800 5.451590 -4.696650 -2.192480 -6.469440 -0.000000 174.320000 -10.957600 -28.828500 39.081100 -0.000007 -0.000012 0.100336 -0.298774 18.563600 40.985400 -0.000006 -0.000013 7.412180 -5.097100 -49.794800 11.754300 -0.000000 0.000003 -0.008275 -0.090268 -20.252900 -2.192510 6.469440 -0.000001 176.315000 14.043100 -171.921000 -39.081100 -0.002282 -0.040193 0.026218 -0.037458 31.460200 -40.985400 0.000008 0.000006 8.264380 10.362300 -68.394000 -11.754300 -0.000006 -0.000006 -0.086396 -0.409468 -33.601500
0.000000 0.000000 0.000000 0.000000 0.000000 -0.000000 145.286000 89.115700 -55.035900 90.550900 -5.026920 0.939655 15.735700 0.000005 -0.000001 106.446000 84.000100 -107.116000 8.984550 -0.406207 -0.000000 3.768720 3.416050 -1.452600 16.377300 -0.000001 -0.000001 0.708702 -2.519430 0.866086 6.456720 -0.000001 -0.000000 2.737110 -6.407450 -0.796617 12.994200 -0.242716 4.980390 -89.649100 -0.903566 -68.772600 5.348090 -0.000007 -0.000001 -77.070700 19.942600 0.289979 24.328600 0.000019 0.000005 2.027450 13.050100 -8.911300 22.291600 -0.000001 0.000005 6.846950 5.308350 -0.160137 12.994500 -0.242716 -4.980390 88.580100 5.374830 -75.178300 -5.348130 -0.000001 -0.000004 -52.574800 33.102500 -42.007900 -24.328900 0.000322 -0.000009 2.349830 3.205330 -36.288100 -22.291500 -0.000108 -0.000004 15.254900 5.453020 -4.748160 -2.192480 -6.469440 -0.000000 174.407000 -9.374560 -27.604300 39.081100 -0.000007 -0.000012 0.067995 -0.158515 23.217000 40.985400 -0.000006 -0.000013 6.504020 -6.891610 -47.067900 11.754300 -0.000000 0.000003 -0.006907 -0.078873 -19.787600 -2.192510 6.469440 -0.000001 174.271000 12.783300 -172.133000 -39.081100 -0.002282 -0.040193 0.064527 -0.080209 37.362900 -40.985400 0.000008 0.000006 7.811680 10.585500 -61.523200 -11.754300 -0.000006 -0.000006 -0.185858 -0.621081 -43.092000
0.000000 0.000000 0.000000 0.000000 0.000000 -0.000000 145.758000 89.240200 -50.267700 90.586700 -4.359980 2.718080 15.735700 0.000005 -0.000001 102.843000 83.656700 -103.693000 8.984550 -0.406207 -0.000000 4.629470 2.838210 -1.813850 16.377300 -0.000001 -0.000001 0.666221 -3.117140 0.824233 6.456720 -0.000001 -0.000000 3.010110 -7.135480 -0.087738 12.994200 -0.242716 4.980390 -89.335600 -1.745690 -69.159300 5.348090 -0.000007 -0.000001 -77.942100 18.085400 1.759640 24.328600 0.000019 0.000005 1.815850 14.478400 -7.226540 22.291600 -0.000001 0.000005 5.600440 5.264770 1.039850 12.994500 -0.242716 -4.980390 88.600300 5.163800 -74.811600 -5.348130 -0.000001 -0.000004 -56.235400 34.035500 -37.770600 -24.328900 0.000322 -0.000009 2.879410 4.085250 -35.234100 -22.291500 -0.000108 -0.000004 15.185300 5.450670 -4.663650 -2.192480 -6.469440 -0.000000 174.549000 -9.871600 -25.490500 39.081100 -0.000007 -0.000012 0.019644 -0.035335 29.070600 40.985400 -0.000006 -0.000013 5.902040 -6.018090 -52.095000 11.754300 -0.000000 0.000003 -0.003791 -0.049261 -18.580500 -2.192510 6.469440 -0.000001 173.488000 11.950000 -174.302000 -39.081100 -0.002282 -0.040193 0.111216 -0.104147 46.028500 -40.985400 0.000008 0.000006 6.747590 10.324700 -50.867800 -11.754300 -0.000006 -0.000006 -0.215881 -0.670853 -45.448900
0.000000 0.000000 0.000000 0.000000 0.000000 -0.000000 146.423000 89.336300 -46.008100 90.841800 -3.662570 4.165190 15.735700 0.000005 -0.000001 99.428500 83.295200 -100.425000 8.984550 -0.406207 -0.000000 5.485740 2.211470 -2.097780 16.377300 -0.000001 -0.000001 0.592748 -3.609660 0.559774 6.456720 -0.000001 -0.000000 2.972900 -7.797300 0.097547 12.994200 -0.242716 4.980390 -89.120200 -2.346030 -69.435700 5.348090 -0.000007 -0.000001 -78.474300 17.267900 2.259930 24.328600 0.000019 0.000005 1.556500 13.495700 -6.641200 22.291600 -0.000001 0.000005 4.631920 5.248360 1.476150 12.994500 -0.242716 -4.980390 88.712500 4.694240 -74.643800 -5.348130 -0.000001 -0.000004 -60.221600 34.527700 -33.377000 -24.328900 0.000322 -0.000009 2.802210 4.306570 -33.105400 -22.291500 -0.000108 -0.000004 14.589900 5.437340 -4.192930 -2.192480 -6.469440 -0.000000 174.120000 -11.468700 -22.732400 39.081100 -0.000007 -0.000012 -0.019414 0.030343 32.612900 40.985400 -0.000006 -0.000013 6.101420 -4.450040 -57.159200 11.754300 -0.000000 0.000003 -0.001852 -0.026851 -17.668600 -2.192510 6.469440 -0.000001 173.020000 9.799960 -179.296000 -39.081100 -0.002282 -0.040193 0.155556 -0.103141 55.899300 -40.985400 0.000008 0.000006 0.768883 7.458050 -37.907800 -11.754300 -0.000006 -0.000006 -0.090081 -0.419249 -34.025300
0.000000 0.000000 0.000000 0.000000 0.000000 -0.000000 147.079000 89.395100 -42.370200 91.300700 -2.878220 4.735990 15.735700 0.000005 -0.000001 95.746200 83.185800 -96.876300 8.984550 -0.406207 -0.000000 5.809740 1.380310 -2.327790 16.377300 -0.000001 -0.000001 0.618891 -3.980170 0.298704 6.456720 -0.000001 -0.000000 2.868840 -8.231020 -0.245446 12.994200 -0.242716 4.980390 -89.169200 -2.206880 -69.363300 5.348090 -0.000007 -0.000001 -78.153800 18.061500 1.871820 24.328600 0.000019 0.000005 1.504960 12.081700 -7.154390 22.291600 -0.000001 0.000005 4.493070 5.259960 1.168630 12.994500 -0.242716 -4.980390 88.661700 4.807810 -74.425300 -5.348130 -0.000001 -0.000004 -62.512600 35.491500 -29.795800 -24.328900 0.000322 -0.000009 2.239930 3.891830 -29.966400 -22.291500 -0.000108 -0.000004 13.659800 5.427520 -3.854070 -2.192480 -6.469440 -0.000000 173.468000 -12.856300 -20.353200 39.081100 -0.000007 -0.000012 -0.017073 0.024957 34.378400 40.985400 -0.000006 -0.000013 6.546120 -2.885540 -60.926700 11.754300 -0.000000 0.000003 -0.001238 -0.018741 -17.338900 -2.192510 6.469440 -0.000001 172.667000 8.409050 174.652000 -39.081100 -0.002282 -0.040193 0.201963 -0.097036 63.981500 -40.985400 0.000008 0.000006 -3.081700 2.013170 -29.789100 -11.754300 -0.000006 -0.000006 -0.034123 -0.235773 -26.242900
